<svg width="121" height="121" viewBox="0 0 121 121" fill="none" xmlns="http://www.w3.org/2000/svg">
<path d="M4.3627 52.7778C2.26491 52.4893 0.317608 53.9561 0.162481 56.068C-0.653554 67.1772 1.61257 78.3238 6.74738 88.2646C12.4701 99.3437 21.4765 108.384 32.5341 114.148C43.5916 119.912 56.1602 122.119 68.5199 120.466C80.8797 118.812 92.4267 113.381 101.581 104.913C110.735 96.4462 117.049 85.3571 119.66 73.1636C122.27 60.9701 121.049 48.2679 116.163 36.7951C111.277 25.3223 102.966 15.6395 92.3658 9.07158C82.8548 3.17842 71.9185 0.0513729 60.7795 3.95226e-05C58.662 -0.00971889 57.048 1.81748 57.1723 3.93136C57.2967 6.04524 59.1127 7.64348 61.23 7.67271C70.789 7.80471 80.1598 10.5295 88.3268 15.59C97.5832 21.3254 104.841 29.781 109.108 39.7996C113.374 49.8182 114.441 60.9104 112.161 71.5584C109.882 82.2064 104.368 91.89 96.374 99.2841C88.38 106.678 78.2966 111.421 67.5034 112.865C56.7103 114.308 45.7347 112.382 36.0787 107.348C26.4226 102.315 18.5578 94.4202 13.5604 84.7454C9.15115 76.2092 7.16418 66.6548 7.77679 57.1145C7.91249 55.0013 6.46048 53.0664 4.3627 52.7778Z" fill="#453DE0"/>
</svg>
